<svg xmlns="http://www.w3.org/2000/svg" version="1.1" xmlns:xlink="http://www.w3.org/1999/xlink"
xmlns:svgjs="http://svgjs.com/svgjs" >
    <g id="SvgjsG298124" class="BwcZIS5HLq" transform="translate(776.2224000000001, -629.2655999999998) scale(1.2816)"
        light-content="false" non-strokable="false" fill="#8a00e6">
        <path
            d="M-448.1 581.9c-4.5 0-4.5 0-4.5 4.5s0 4.5 4.5 4.5 4.5 0 4.5-4.5c.1-4.5.1-4.5-4.5-4.5zm-18.2 0c-4.5 0-4.5 0-4.5 4.5s0 4.5 4.5 4.5 4.5 0 4.5-4.5c.1-4.5.1-4.5-4.5-4.5zm-18.2 0c-4.5 0-4.5 0-4.5 4.5s0 4.5 4.5 4.5 4.5 0 4.5-4.5c.1-4.5.1-4.5-4.5-4.5zm0-18.2c-4.5 0-4.5 0-4.5 4.5s0 4.5 4.5 4.5 4.5 0 4.5-4.5c.1-4.5.1-4.5-4.5-4.5zm0-18.2c-4.5 0-4.5 0-4.5 4.5s0 4.5 4.5 4.5 4.5 0 4.5-4.5c.1-4.5.1-4.5-4.5-4.5zm0-18.1c-4.5 0-4.5 0-4.5 4.5s0 4.5 4.5 4.5 4.5 0 4.5-4.5c.1-4.5.1-4.5-4.5-4.5zm0-18.2c-4.5 0-4.5 0-4.5 4.5s0 4.5 4.5 4.5 4.5 0 4.5-4.5c.1-4.5.1-4.5-4.5-4.5zm91-18.2h-36.4c-4.5 0-4.5 0-4.5 4.5v90.9c0 4.5 0 4.5 4.5 4.5h36.4c4.5 0 4.5 0 4.5-4.5v-90.9c0-4.5 0-4.5-4.5-4.5zm-54.6 0c-4.5 0-4.5 0-4.5 4.5s0 4.5 4.5 4.5 4.5 0 4.5-4.5c.1-4.5.1-4.5-4.5-4.5zm-18.2 0c-4.5 0-4.5 0-4.5 4.5s0 4.5 4.5 4.5 4.5 0 4.5-4.5c.1-4.5.1-4.5-4.5-4.5zm-18.2 0c-4.5 0-4.5 0-4.5 4.5s0 4.5 4.5 4.5 4.5 0 4.5-4.5c.1-4.5.1-4.5-4.5-4.5z">
        </path>
    </g>
</svg>