<svg xmlns="http://www.w3.org/2000/svg" version="1.1" xmlns:xlink="http://www.w3.org/1999/xlink" xmlns:svgjs="http://svgjs.com/svgjs" width="428" height="195"><svg xmlns="http://www.w3.org/2000/svg" version="1.1" xmlns:xlink="http://www.w3.org/1999/xlink" xmlns:svgjs="http://svgjs.com/svgjs" width="428" height="195" overflow="visible"><g class="signage-logo" opacity="1"><defs id="SvgjsDefs1004"></defs><g id="SvgjsG1003" opacity="1"><g id="SvgjsG1002" class="BwcZIS5HLq" transform="translate(776.2224000000001, -629.2655999999998) scale(1.2816)" light-content="false" non-strokable="false" fill="#8a00e6"><path d="M-448.1 581.9c-4.5 0-4.5 0-4.5 4.5s0 4.5 4.5 4.5 4.5 0 4.5-4.5c.1-4.5.1-4.5-4.5-4.5zm-18.2 0c-4.5 0-4.5 0-4.5 4.5s0 4.5 4.5 4.5 4.5 0 4.5-4.5c.1-4.5.1-4.5-4.5-4.5zm-18.2 0c-4.5 0-4.5 0-4.5 4.5s0 4.5 4.5 4.5 4.5 0 4.5-4.5c.1-4.5.1-4.5-4.5-4.5zm0-18.2c-4.5 0-4.5 0-4.5 4.5s0 4.5 4.5 4.5 4.5 0 4.5-4.5c.1-4.5.1-4.5-4.5-4.5zm0-18.2c-4.5 0-4.5 0-4.5 4.5s0 4.5 4.5 4.5 4.5 0 4.5-4.5c.1-4.5.1-4.5-4.5-4.5zm0-18.1c-4.5 0-4.5 0-4.5 4.5s0 4.5 4.5 4.5 4.5 0 4.5-4.5c.1-4.5.1-4.5-4.5-4.5zm0-18.2c-4.5 0-4.5 0-4.5 4.5s0 4.5 4.5 4.5 4.5 0 4.5-4.5c.1-4.5.1-4.5-4.5-4.5zm91-18.2h-36.4c-4.5 0-4.5 0-4.5 4.5v90.9c0 4.5 0 4.5 4.5 4.5h36.4c4.5 0 4.5 0 4.5-4.5v-90.9c0-4.5 0-4.5-4.5-4.5zm-54.6 0c-4.5 0-4.5 0-4.5 4.5s0 4.5 4.5 4.5 4.5 0 4.5-4.5c.1-4.5.1-4.5-4.5-4.5zm-18.2 0c-4.5 0-4.5 0-4.5 4.5s0 4.5 4.5 4.5 4.5 0 4.5-4.5c.1-4.5.1-4.5-4.5-4.5zm-18.2 0c-4.5 0-4.5 0-4.5 4.5s0 4.5 4.5 4.5 4.5 0 4.5-4.5c.1-4.5.1-4.5-4.5-4.5z"></path></g><g id="SvgjsG1001" class="text" transform="translate(64.41, 192.03184000000013) scale(1)" light-content="false" fill="#2e2e2e"><path d="M-64.41 0L-42.87 0C-39.55 0 -37.09 -0.91 -35.49 -2.73C-33.89 -4.55 -33.09 -6.96 -33.09 -9.96C-33.09 -15.72 -35.51 -19.02 -40.35 -19.86L-40.35 -20.22C-38.71 -20.66 -37.4 -21.61 -36.42 -23.07C-35.44 -24.53 -34.95 -26.6 -34.95 -29.28C-34.95 -31.96 -35.72 -34 -37.26 -35.4C-38.8 -36.8 -41.37 -37.5 -44.97 -37.5L-64.41 -37.5ZM-47.73 -14.94C-46.09 -14.94 -45.27 -13.92 -45.27 -11.88C-45.27 -9.84 -46.11 -8.82 -47.79 -8.82L-52.41 -8.82L-52.41 -14.94ZM-48.63 -29.28C-47.15 -29.28 -46.41 -28.35 -46.41 -26.49C-46.41 -24.63 -47.17 -23.7 -48.69 -23.7L-52.41 -23.7L-52.41 -29.28Z M-17.79 -37.5L-29.79 -37.5L-29.79 -16.44C-29.79 -13.04 -29.57 -10.3 -29.13 -8.22C-28.69 -6.14 -27.87 -4.38 -26.67 -2.94C-25.47 -1.5 -23.84 -0.5 -21.78 0.06C-19.72 0.62 -17.03 0.9 -13.71 0.9C-10.39 0.9 -7.69 0.62 -5.61 0.06C-3.53 -0.5 -1.89 -1.5 -0.69 -2.94C0.51 -4.38 1.33 -6.14 1.77 -8.22C2.21 -10.3 2.43 -13.04 2.43 -16.44L2.43 -37.5L-9.57 -37.5L-9.57 -12.54C-9.57 -11.18 -9.85 -10.31 -10.41 -9.93C-10.97 -9.55 -12.01 -9.36 -13.53 -9.36L-17.79 -9.36Z M31.53 0L31.53 -9.6L19.53 -9.6L19.53 -37.5L7.53 -37.5L7.53 0Z M46.83 -16.32L47.07 -16.32C47.15 -15.12 47.35 -14.16 47.67 -13.44L53.85 0L66.81 0L57.51 -19.08L66.51 -37.5L53.55 -37.5L47.67 -25.08C47.35 -24.36 47.15 -23.4 47.07 -22.2L46.83 -22.2L46.83 -37.5L34.83 -37.5L34.83 0L46.83 0Z"></path></g><g id="SvgjsG1000" class="text" transform="translate(282.36, 191.43184000000014) scale(1)" light-content="false" fill="#8a00e6"><path d="M-143.64 -0.66C-139.2 0.38 -134.38 0.9 -129.18 0.9C-127.02 0.9 -125.29 0.85 -123.99 0.75C-122.69 0.65 -121.18 0.36 -119.46 -0.12C-117.74 -0.6 -116.41 -1.29 -115.47 -2.19C-114.53 -3.09 -113.72 -4.41 -113.04 -6.15C-112.36 -7.89 -112.02 -10.02 -112.02 -12.54C-112.02 -16.06 -113.02 -18.81 -115.02 -20.79C-117.02 -22.77 -120.64 -24.02 -125.88 -24.54L-130.2 -24.96L-130.2 -27.9C-128.64 -28.1 -126.74 -28.2 -124.5 -28.2C-122.26 -28.2 -119.28 -27.9 -115.56 -27.3L-114.06 -36.9C-118.34 -37.9 -123.14 -38.4 -128.46 -38.4C-133.78 -38.4 -137.55 -37.44 -139.77 -35.52C-141.99 -33.6 -143.1 -30.08 -143.1 -24.96C-143.1 -21.24 -142.19 -18.43 -140.37 -16.53C-138.55 -14.63 -135.2 -13.46 -130.32 -13.02L-124.92 -12.54L-124.92 -9.54C-126.72 -9.3 -129.09 -9.18 -132.03 -9.18C-134.97 -9.18 -138.28 -9.64 -141.96 -10.56Z M-87.42 -1.38L-87.42 0.9L-75.9 3L-72.78 -3.9L-77.1 -6.42C-74.98 -9.54 -73.92 -13.64 -73.92 -18.72C-73.92 -25.52 -75.22 -30.5 -77.82 -33.66C-80.42 -36.82 -85.04 -38.4 -91.68 -38.4C-98.32 -38.4 -102.92 -36.83 -105.48 -33.69C-108.04 -30.55 -109.32 -25.56 -109.32 -18.72C-109.32 -15.68 -109.08 -13.09 -108.6 -10.95C-108.12 -8.81 -107.28 -6.88 -106.08 -5.16C-103.76 -1.72 -99.24 0 -92.52 0ZM-96.42 -9.36L-96.42 -24.96C-96.42 -26.32 -96.05 -27.19 -95.31 -27.57C-94.57 -27.95 -93.4 -28.14 -91.8 -28.14L-86.76 -28.14L-86.76 -12.54C-86.76 -11.18 -87.13 -10.31 -87.87 -9.93C-88.61 -9.55 -89.8 -9.36 -91.44 -9.36Z M-58.62 -37.5L-70.62 -37.5L-70.62 -16.44C-70.62 -13.04 -70.4 -10.3 -69.96 -8.22C-69.52 -6.14 -68.7 -4.38 -67.5 -2.94C-66.3 -1.5 -64.67 -0.5 -62.61 0.06C-60.55 0.62 -57.86 0.9 -54.54 0.9C-51.22 0.9 -48.52 0.62 -46.44 0.06C-44.36 -0.5 -42.72 -1.5 -41.52 -2.94C-40.32 -4.38 -39.5 -6.14 -39.06 -8.22C-38.62 -10.3 -38.4 -13.04 -38.4 -16.44L-38.4 -37.5L-50.4 -37.5L-50.4 -12.54C-50.4 -11.18 -50.68 -10.31 -51.24 -9.93C-51.8 -9.55 -52.84 -9.36 -54.36 -9.36L-58.62 -9.36Z M-24.36 0L-22.98 -5.94L-13.08 -5.94L-11.7 0L0.96 0L-8.76 -37.5L-27.3 -37.5L-37.02 0ZM-18.36 -25.98L-17.7 -25.98L-15.3 -15.48L-20.82 -15.48Z M35.94 0L29.46 -12.48C33.18 -14.4 35.04 -18.36 35.04 -24.36C35.04 -33.12 30.74 -37.5 22.14 -37.5L3.24 -37.5L3.24 0L15.24 0L15.24 -11.16L17.82 -11.16L22.74 0ZM15.24 -27.9L18 -27.9C19.44 -27.9 20.49 -27.75 21.15 -27.45C21.81 -27.15 22.14 -26.46 22.14 -25.38L22.14 -22.92C22.14 -21.84 21.81 -21.15 21.15 -20.85C20.49 -20.55 19.44 -20.4 18 -20.4L15.24 -20.4Z M64.14 -14.16L64.14 -22.86L52.14 -22.86L52.14 -27.9L65.04 -27.9L66.54 -37.5L40.14 -37.5L40.14 0L66.84 0L66.84 -9.6L52.14 -9.6L52.14 -14.16Z M94.14 -13.92L94.14 -22.86L83.94 -22.86L83.94 -27.9L95.04 -27.9L96.54 -37.5L71.94 -37.5L71.94 0L83.94 0L83.94 -13.92Z M100.14 0L112.14 0L112.14 -37.5L100.14 -37.5Z M144.84 -27.9L144.84 -37.5L115.44 -37.5L115.44 -27.9L124.14 -27.9L124.14 0L136.14 0L136.14 -27.9Z"></path></g></g></g></svg><style>@media (prefers-color-scheme: light) { :root { filter: none; } }
</style></svg>