<?xml version="1.0" standalone="no"?>
<!DOCTYPE svg PUBLIC "-//W3C//DTD SVG 20010904//EN"
 "http://www.w3.org/TR/2001/REC-SVG-20010904/DTD/svg10.dtd">
<svg version="1.0" xmlns="http://www.w3.org/2000/svg"
 width="532.000000pt" height="532.000000pt" viewBox="0 0 532.000000 532.000000"
 preserveAspectRatio="xMidYMid meet">
<metadata>
Created by potrace 1.14, written by Peter Selinger 2001-2017
</metadata>
<g transform="translate(0.000000,532.000000) scale(0.100000,-0.100000)"
fill="#000000" stroke="none">
<path d="M178 5222 c-36 -22 -45 -66 -45 -218 0 -177 10 -205 83 -219 33 -6
245 -7 286 -2 28 4 77 32 79 45 0 4 3 16 5 27 6 26 7 296 1 315 -18 63 -40 69
-230 69 -122 -1 -158 -4 -179 -17z"/>
<path d="M1134 5233 c-56 -10 -71 -66 -69 -251 3 -197 10 -203 238 -203 157 1
200 13 212 59 13 47 15 295 2 336 -16 57 -44 65 -218 64 -79 -1 -154 -3 -165
-5z"/>
<path d="M2054 5225 c-48 -20 -55 -48 -55 -220 -1 -181 10 -208 89 -220 69
-10 270 -7 306 5 52 17 59 40 64 200 6 244 2 249 -227 249 -98 0 -156 -5 -177
-14z"/>
<path d="M2990 5230 c0 -6 -6 -10 -13 -10 -7 0 -19 -10 -27 -22 -13 -20 -15
-326 -17 -2509 -3 -2769 -9 -2539 65 -2558 47 -13 172 -20 172 -9 0 4 6 5 13
2 23 -9 237 -10 237 -1 0 5 5 5 11 2 14 -9 264 -9 278 -1 6 4 11 4 11 -1 0 -9
200 -9 224 0 9 4 16 3 16 -1 0 -8 204 -7 226 2 7 3 14 2 14 -2 0 -8 202 -7
224 1 9 4 16 3 16 -1 0 -8 204 -7 226 2 7 3 14 2 14 -2 0 -8 202 -7 224 1 9 4
16 3 16 -1 0 -4 37 -6 82 -5 193 4 232 14 246 63 4 14 7 1141 7 2506 0 2720 5
2525 -59 2543 -44 13 -2206 13 -2206 1z"/>
<path d="M223 4300 c-81 -12 -92 -40 -89 -242 1 -119 4 -149 19 -171 10 -15
21 -27 25 -28 4 0 18 -3 32 -6 23 -5 179 -7 277 -4 50 1 91 32 100 76 3 17 6
93 6 170 0 148 -6 175 -46 196 -24 13 -255 20 -324 9z"/>
<path d="M217 3366 c-76 -13 -82 -30 -82 -216 0 -180 9 -213 58 -226 46 -11
286 -12 326 -1 46 12 60 28 69 79 9 52 8 273 -2 311 -11 46 -53 59 -195 61
-69 1 -148 -3 -174 -8z"/>
<path d="M211 2439 c-43 -9 -60 -27 -71 -73 -11 -51 -6 -296 8 -328 18 -44 45
-51 197 -52 248 -1 246 -2 248 232 1 171 -5 195 -51 214 -31 12 -279 18 -331
7z"/>
<path d="M250 1512 c-50 -6 -90 -24 -102 -45 -15 -28 -20 -289 -7 -343 16 -61
34 -67 199 -71 157 -3 214 7 233 41 17 31 17 38 20 197 2 160 -5 189 -52 208
-24 11 -236 20 -291 13z"/>
<path d="M204 574 c-12 -3 -32 -16 -45 -30 -23 -25 -24 -32 -25 -182 -1 -191
6 -216 68 -233 44 -11 142 -14 159 -3 5 3 9 1 9 -3 0 -21 170 3 193 26 24 23
32 97 31 254 -1 114 -2 119 -28 145 -26 27 -27 27 -184 29 -86 1 -167 -1 -178
-3z"/>
<path d="M1136 572 c-57 -13 -68 -44 -70 -193 -3 -240 9 -258 166 -260 32 0
61 2 66 5 4 2 14 1 21 -4 8 -4 27 -4 42 0 16 5 29 5 29 0 0 -10 74 6 100 22
27 17 32 46 35 203 3 170 -5 205 -55 221 -37 13 -286 16 -334 6z"/>
<path d="M2063 569 c-53 -16 -65 -56 -66 -229 0 -171 12 -202 83 -215 43 -7
177 -8 190 0 5 3 11 1 15 -5 4 -6 10 -8 14 -6 4 3 25 6 47 7 57 3 92 24 103
62 11 42 12 312 1 342 -16 43 -53 52 -210 53 -80 1 -160 -3 -177 -9z"/>
</g>
</svg>
